# xmcd CD database file
#
# Track frame offsets:
#	150
#	13157
#	25901
#	38086
#	50894
#	65614
#	79206
#	94473
#	107632
#	121809
#	134690
#	148831
#	163210
#	208382
#	236277
#	265431
#	295191
#	329245
#
# Disc length: 4780 seconds
#
# Revision: 0
# Processed by: cddbd v1.5.2PL0 Copyright (c) Steve Scherf et al.
# Submitted via: CDex 1.70beta2
#
DISCID=2412aa12
DTITLE=Buddy de Franco - Four Classic Albums Plus - CD1 - Budyy de Franco - The Artistry
DYEAR=1954
DGENRE=Jazz
TTITLE0=Gone With The Wind
TTITLE1=Sweet Georgia Brown
TTITLE2=Street Of Dreams
TTITLE3=Get Happy
TTITLE4=Sophisticated Lady
TTITLE5=Carioca
TTITLE6=Lover Come Back To Me
TTITLE7=I Got It Bad (And That Ain't Good)
TTITLE8=Just One Of Those Things
TTITLE9=Cairo
TTITLE10=Samia Shuffle
TTITLE11=The Way You Look Tonight
TTITLE12=Titoro
TTITLE13=You Go To My Head
TTITLE14=Mine
TTITLE15=Gerry's Tune
TTITLE16=Autumn Leaves
TTITLE17=Now's The Time
EXTD=YEAR: 1954
EXTT0=
EXTT1=
EXTT2=
EXTT3=
EXTT4=
EXTT5=
EXTT6=
EXTT7=
EXTT8=
EXTT9=
EXTT10=
EXTT11=
EXTT12=
EXTT13=
EXTT14=
EXTT15=
EXTT16=
EXTT17=
PLAYORDER=
